<mxfile host="Electron" modified="2020-04-12T21:30:45.153Z" agent="5.0 (Windows NT 6.3; Win64; x64) AppleWebKit/537.36 (KHTML, like Gecko) draw.io/12.9.9 Chrome/80.0.3987.163 Electron/8.2.1 Safari/537.36" etag="7eGn_7uKlqffog7zK8S4" compressed="false" version="12.9.9" type="device">
  <diagram id="a8qm5YuHrImj4eT9IvoD" name="Page-1">
    <mxGraphModel dx="331" dy="229" grid="1" gridSize="10" guides="1" tooltips="1" connect="1" arrows="1" fold="0" page="1" pageScale="1" pageWidth="1169" pageHeight="827" math="0" shadow="0">
      <root>
        <mxCell id="0" />
        <mxCell id="1" parent="0" />
        <mxCell id="HVskGO4853j7q7rBNwDe-10" value="out.temp =&lt;br&gt;powrot.YTczuj" style="edgeStyle=orthogonalEdgeStyle;rounded=0;orthogonalLoop=1;jettySize=auto;html=1;exitX=0.5;exitY=1;exitDx=0;exitDy=0;entryX=0;entryY=0.5;entryDx=0;entryDy=0;labelBackgroundColor=none;" parent="1" source="HVskGO4853j7q7rBNwDe-3" target="HVskGO4853j7q7rBNwDe-24" edge="1">
          <mxGeometry x="1" y="42" relative="1" as="geometry">
            <mxPoint x="320" y="480" as="targetPoint" />
            <Array as="points">
              <mxPoint x="340" y="470" />
            </Array>
            <mxPoint x="11" y="2" as="offset" />
          </mxGeometry>
        </mxCell>
        <mxCell id="HVskGO4853j7q7rBNwDe-2" value="Piec:&lt;br&gt;YTwyj = $iner:Inercja(UTpowr + UTmoc);" style="rounded=0;whiteSpace=wrap;html=1;gradientColor=#6666FF;fillColor=#FF6666;" parent="1" vertex="1">
          <mxGeometry x="140" y="190" width="160" height="240" as="geometry" />
        </mxCell>
        <mxCell id="HVskGO4853j7q7rBNwDe-3" value="Powrot:&lt;br&gt;YTczuj = iner(UTwej)" style="rounded=0;whiteSpace=wrap;html=1;fillColor=#6666FF;gradientColor=none;align=left;" parent="1" vertex="1">
          <mxGeometry x="230" y="370" width="120" height="40" as="geometry" />
        </mxCell>
        <mxCell id="HVskGO4853j7q7rBNwDe-22" style="edgeStyle=orthogonalEdgeStyle;rounded=0;orthogonalLoop=1;jettySize=auto;html=1;exitX=0.5;exitY=0;exitDx=0;exitDy=0;entryX=0.5;entryY=0;entryDx=0;entryDy=0;strokeColor=#FF0000;" parent="1" source="HVskGO4853j7q7rBNwDe-4" target="HVskGO4853j7q7rBNwDe-15" edge="1">
          <mxGeometry relative="1" as="geometry">
            <Array as="points">
              <mxPoint x="220" y="150" />
              <mxPoint x="560" y="150" />
            </Array>
          </mxGeometry>
        </mxCell>
        <mxCell id="HVskGO4853j7q7rBNwDe-28" style="edgeStyle=orthogonalEdgeStyle;rounded=0;orthogonalLoop=1;jettySize=auto;html=1;exitX=0.5;exitY=0;exitDx=0;exitDy=0;entryX=0;entryY=0.25;entryDx=0;entryDy=0;strokeColor=#FF0000;" parent="1" source="HVskGO4853j7q7rBNwDe-4" target="HVskGO4853j7q7rBNwDe-27" edge="1">
          <mxGeometry relative="1" as="geometry">
            <mxPoint x="689" y="140" as="targetPoint" />
            <Array as="points">
              <mxPoint x="220" y="150" />
              <mxPoint x="560" y="150" />
              <mxPoint x="560" y="170" />
            </Array>
          </mxGeometry>
        </mxCell>
        <mxCell id="VbgerHLO9BjWHMapBbgY-2" value="zawor.YTwyj = piec.YTwyj" style="text;html=1;align=center;verticalAlign=middle;resizable=0;points=[];labelBackgroundColor=#ffffff;fontSize=10;" parent="HVskGO4853j7q7rBNwDe-28" vertex="1" connectable="0">
          <mxGeometry x="-0.3765" y="1" relative="1" as="geometry">
            <mxPoint as="offset" />
          </mxGeometry>
        </mxCell>
        <mxCell id="sfrr9DZfyL2tGj60liWU-4" style="edgeStyle=orthogonalEdgeStyle;rounded=0;orthogonalLoop=1;jettySize=auto;html=1;exitX=0.5;exitY=0;exitDx=0;exitDy=0;strokeColor=#000000;entryX=0;entryY=0.5;entryDx=0;entryDy=0;" parent="1" source="HVskGO4853j7q7rBNwDe-4" target="sfrr9DZfyL2tGj60liWU-2" edge="1">
          <mxGeometry relative="1" as="geometry">
            <Array as="points">
              <mxPoint x="220" y="150" />
              <mxPoint x="30" y="150" />
              <mxPoint x="30" y="590" />
            </Array>
            <mxPoint x="70" y="520" as="targetPoint" />
          </mxGeometry>
        </mxCell>
        <mxCell id="VbgerHLO9BjWHMapBbgY-6" value="ster.UTpiec =&lt;br style=&quot;font-size: 10px;&quot;&gt;piec.YTwyj" style="text;html=1;align=center;verticalAlign=middle;resizable=0;points=[];labelBackgroundColor=#ffffff;fontSize=10;" parent="sfrr9DZfyL2tGj60liWU-4" vertex="1" connectable="0">
          <mxGeometry x="0.2736" y="1" relative="1" as="geometry">
            <mxPoint x="8.940000000000001" y="-58.82" as="offset" />
          </mxGeometry>
        </mxCell>
        <mxCell id="HVskGO4853j7q7rBNwDe-4" value="" style="rounded=0;whiteSpace=wrap;html=1;fillColor=#FF6666;gradientColor=none;" parent="1" vertex="1">
          <mxGeometry x="210" y="170" width="20" height="40" as="geometry" />
        </mxCell>
        <mxCell id="HVskGO4853j7q7rBNwDe-21" value="powrot.UTwej&lt;br style=&quot;font-size: 10px;&quot;&gt;= zawor.YTwyj" style="edgeStyle=orthogonalEdgeStyle;rounded=0;orthogonalLoop=1;jettySize=auto;html=1;exitX=1;exitY=0.5;exitDx=0;exitDy=0;entryX=1;entryY=0.5;entryDx=0;entryDy=0;strokeColor=#0000FF;labelBackgroundColor=none;fontSize=10;" parent="1" source="HVskGO4853j7q7rBNwDe-14" target="HVskGO4853j7q7rBNwDe-3" edge="1">
          <mxGeometry relative="1" as="geometry">
            <mxPoint as="offset" />
          </mxGeometry>
        </mxCell>
        <mxCell id="HVskGO4853j7q7rBNwDe-14" value="" style="triangle;whiteSpace=wrap;html=1;fillColor=#ffffff;gradientColor=none;align=left;rotation=-180;" parent="1" vertex="1">
          <mxGeometry x="430" y="360" width="60" height="60" as="geometry" />
        </mxCell>
        <mxCell id="HVskGO4853j7q7rBNwDe-19" style="edgeStyle=orthogonalEdgeStyle;rounded=0;orthogonalLoop=1;jettySize=auto;html=1;exitX=0.5;exitY=1;exitDx=0;exitDy=0;entryX=0;entryY=0.5;entryDx=0;entryDy=0;strokeColor=#0000FF;" parent="1" source="HVskGO4853j7q7rBNwDe-15" target="HVskGO4853j7q7rBNwDe-14" edge="1">
          <mxGeometry relative="1" as="geometry" />
        </mxCell>
        <mxCell id="VbgerHLO9BjWHMapBbgY-3" value="piec.UTpowr&lt;br style=&quot;font-size: 10px;&quot;&gt;= zawor.YTwyj" style="text;html=1;align=center;verticalAlign=middle;resizable=0;points=[];labelBackgroundColor=none;fontSize=10;" parent="HVskGO4853j7q7rBNwDe-19" vertex="1" connectable="0">
          <mxGeometry x="-0.1833" y="-15" relative="1" as="geometry">
            <mxPoint x="-5" y="11" as="offset" />
          </mxGeometry>
        </mxCell>
        <mxCell id="HVskGO4853j7q7rBNwDe-15" value="Zawor:&lt;br&gt;YTwyj = Usil * UTsprz + (1-Usil) * UTpiec" style="rounded=0;whiteSpace=wrap;html=1;fillColor=#FFCCE6;gradientColor=none;align=left;" parent="1" vertex="1">
          <mxGeometry x="500" y="280" width="120" height="60" as="geometry" />
        </mxCell>
        <mxCell id="HVskGO4853j7q7rBNwDe-31" style="edgeStyle=orthogonalEdgeStyle;rounded=0;orthogonalLoop=1;jettySize=auto;html=1;exitX=1;exitY=0.5;exitDx=0;exitDy=0;entryX=0;entryY=0.5;entryDx=0;entryDy=0;" parent="1" source="HVskGO4853j7q7rBNwDe-17" target="HVskGO4853j7q7rBNwDe-30" edge="1">
          <mxGeometry relative="1" as="geometry" />
        </mxCell>
        <mxCell id="VbgerHLO9BjWHMapBbgY-1" value="silownik.U&lt;br style=&quot;font-size: 10px;&quot;&gt;= in.silownik" style="text;html=1;align=center;verticalAlign=middle;resizable=0;points=[];labelBackgroundColor=none;fontSize=10;" parent="HVskGO4853j7q7rBNwDe-31" vertex="1" connectable="0">
          <mxGeometry x="-0.2512" y="2" relative="1" as="geometry">
            <mxPoint x="-3" y="17.07" as="offset" />
          </mxGeometry>
        </mxCell>
        <mxCell id="HVskGO4853j7q7rBNwDe-17" value="# sil&lt;br&gt;[-1, 0, +1]" style="shape=parallelogram;html=1;strokeWidth=1;perimeter=parallelogramPerimeter;whiteSpace=wrap;rounded=1;arcSize=12;size=0.17333333333333334;fillColor=#FFFFFF;gradientColor=none;" parent="1" vertex="1">
          <mxGeometry x="450" y="480" width="80" height="40" as="geometry" />
        </mxCell>
        <mxCell id="HVskGO4853j7q7rBNwDe-24" value="# temp" style="shape=parallelogram;html=1;strokeWidth=1;perimeter=parallelogramPerimeter;whiteSpace=wrap;rounded=1;arcSize=12;size=0.17333333333333334;fillColor=#FFFFFF;gradientColor=none;" parent="1" vertex="1">
          <mxGeometry x="360" y="450" width="100" height="40" as="geometry" />
        </mxCell>
        <mxCell id="HVskGO4853j7q7rBNwDe-29" style="edgeStyle=orthogonalEdgeStyle;rounded=0;orthogonalLoop=1;jettySize=auto;html=1;exitX=0;exitY=0.75;exitDx=0;exitDy=0;entryX=1;entryY=0.5;entryDx=0;entryDy=0;strokeColor=#0000FF;" parent="1" source="HVskGO4853j7q7rBNwDe-27" target="HVskGO4853j7q7rBNwDe-15" edge="1">
          <mxGeometry relative="1" as="geometry" />
        </mxCell>
        <mxCell id="HVskGO4853j7q7rBNwDe-37" style="edgeStyle=orthogonalEdgeStyle;rounded=0;orthogonalLoop=1;jettySize=auto;html=1;exitX=1;exitY=0.25;exitDx=0;exitDy=0;entryX=0;entryY=0.5;entryDx=0;entryDy=0;strokeColor=#FF0000;" parent="1" source="HVskGO4853j7q7rBNwDe-27" target="HVskGO4853j7q7rBNwDe-36" edge="1">
          <mxGeometry relative="1" as="geometry" />
        </mxCell>
        <mxCell id="HVskGO4853j7q7rBNwDe-27" value="&lt;font style=&quot;font-size: 6px&quot;&gt;Sprz:&lt;br style=&quot;font-size: 6px&quot;&gt;$Cin = $Usil;&lt;br style=&quot;font-size: 6px&quot;&gt;$Zout = -$Usil;&lt;br style=&quot;font-size: 6px&quot;&gt;$Cout = -$K*$Upomp;&lt;br style=&quot;font-size: 6px&quot;&gt;$Zin = $K*$Upomp;&lt;br style=&quot;font-size: 6px&quot;&gt;$Cbilans = $Cin + $Cout;&lt;br style=&quot;font-size: 6px&quot;&gt;$Zbilans = $Zin + $Zout;&lt;br style=&quot;font-size: 6px&quot;&gt;$d = $Cbilans - $Zbilans;&lt;br style=&quot;font-size: 6px&quot;&gt;if ($d &amp;gt; 0) {&lt;br style=&quot;font-size: 6px&quot;&gt;&amp;nbsp; &amp;nbsp;$YTciepl = $UTpiec;&lt;br style=&quot;font-size: 6px&quot;&gt;&amp;nbsp; &amp;nbsp;$w = $d / ($d + $Zin);&lt;br style=&quot;font-size: 6px&quot;&gt;&amp;nbsp; &amp;nbsp;$YTzimn = $UTpiec * $w&lt;br&gt;&amp;nbsp; &amp;nbsp; &amp;nbsp; &amp;nbsp; &amp;nbsp; &amp;nbsp; &amp;nbsp; &amp;nbsp; &amp;nbsp; + $UTzas * (1 - $w);&lt;br style=&quot;font-size: 6px&quot;&gt;} else {&lt;br style=&quot;font-size: 6px&quot;&gt;&amp;nbsp; &amp;nbsp;$YTzimn = $UTzas;&lt;br style=&quot;font-size: 6px&quot;&gt;&amp;nbsp; &amp;nbsp;$w = $d / ($d - $Cin);&lt;br style=&quot;font-size: 6px&quot;&gt;&amp;nbsp; &amp;nbsp;$YTciepl = $UTzas * $w&lt;br&gt;&amp;nbsp; &amp;nbsp; &amp;nbsp; &amp;nbsp; &amp;nbsp; &amp;nbsp; &amp;nbsp; &amp;nbsp; &amp;nbsp;+ $UTpiec * (1 - $w);&lt;br&gt;}&lt;br style=&quot;font-size: 6px&quot;&gt;&lt;/font&gt;" style="rounded=0;whiteSpace=wrap;html=1;gradientColor=#6666FF;fillColor=#FF6666;align=left;fontSize=6;" parent="1" vertex="1">
          <mxGeometry x="690" y="100" width="120" height="280" as="geometry" />
        </mxCell>
        <mxCell id="HVskGO4853j7q7rBNwDe-32" style="edgeStyle=orthogonalEdgeStyle;rounded=0;orthogonalLoop=1;jettySize=auto;html=1;exitX=0.5;exitY=0;exitDx=0;exitDy=0;entryX=1;entryY=1;entryDx=0;entryDy=0;" parent="1" source="HVskGO4853j7q7rBNwDe-30" target="HVskGO4853j7q7rBNwDe-15" edge="1">
          <mxGeometry relative="1" as="geometry" />
        </mxCell>
        <mxCell id="HVskGO4853j7q7rBNwDe-33" style="edgeStyle=orthogonalEdgeStyle;rounded=0;orthogonalLoop=1;jettySize=auto;html=1;exitX=0.5;exitY=0;exitDx=0;exitDy=0;entryX=0;entryY=1;entryDx=0;entryDy=0;" parent="1" source="HVskGO4853j7q7rBNwDe-30" target="HVskGO4853j7q7rBNwDe-27" edge="1">
          <mxGeometry relative="1" as="geometry">
            <Array as="points">
              <mxPoint x="660" y="380" />
            </Array>
          </mxGeometry>
        </mxCell>
        <mxCell id="HVskGO4853j7q7rBNwDe-30" value="Silownik:&lt;br&gt;$y&#39; = $Ksil * U;&lt;br&gt;$y in [0..1]" style="rounded=0;whiteSpace=wrap;html=1;fillColor=#E6E6E6;gradientColor=none;align=left;" parent="1" vertex="1">
          <mxGeometry x="600" y="420" width="120" height="50" as="geometry" />
        </mxCell>
        <mxCell id="HVskGO4853j7q7rBNwDe-39" style="edgeStyle=orthogonalEdgeStyle;rounded=0;orthogonalLoop=1;jettySize=auto;html=1;exitX=1;exitY=0.5;exitDx=0;exitDy=0;entryX=0;entryY=0.5;entryDx=0;entryDy=0;strokeColor=#FF0000;" parent="1" source="HVskGO4853j7q7rBNwDe-36" target="HVskGO4853j7q7rBNwDe-38" edge="1">
          <mxGeometry relative="1" as="geometry" />
        </mxCell>
        <mxCell id="dyTlxXhGQoL0F0jeLbe4-1" value="zasob.UTsprz&lt;br style=&quot;font-size: 10px;&quot;&gt;=&lt;br style=&quot;font-size: 10px;&quot;&gt;sprz.YTciepl" style="text;html=1;align=center;verticalAlign=middle;resizable=0;points=[];labelBackgroundColor=none;fontSize=10;" parent="HVskGO4853j7q7rBNwDe-39" vertex="1" connectable="0">
          <mxGeometry x="0.1867" y="-4" relative="1" as="geometry">
            <mxPoint x="-9" y="-9" as="offset" />
          </mxGeometry>
        </mxCell>
        <mxCell id="HVskGO4853j7q7rBNwDe-36" value="" style="triangle;whiteSpace=wrap;html=1;fillColor=#ffffff;gradientColor=none;align=left;rotation=0;" parent="1" vertex="1">
          <mxGeometry x="840" y="140" width="60" height="60" as="geometry" />
        </mxCell>
        <mxCell id="HVskGO4853j7q7rBNwDe-40" style="edgeStyle=orthogonalEdgeStyle;rounded=0;orthogonalLoop=1;jettySize=auto;html=1;exitX=0;exitY=0.75;exitDx=0;exitDy=0;entryX=1;entryY=0.75;entryDx=0;entryDy=0;strokeColor=#0000FF;" parent="1" source="HVskGO4853j7q7rBNwDe-38" target="HVskGO4853j7q7rBNwDe-27" edge="1">
          <mxGeometry relative="1" as="geometry" />
        </mxCell>
        <mxCell id="sfrr9DZfyL2tGj60liWU-5" style="edgeStyle=orthogonalEdgeStyle;rounded=0;orthogonalLoop=1;jettySize=auto;html=1;exitX=0.5;exitY=1;exitDx=0;exitDy=0;entryX=1;entryY=0.5;entryDx=0;entryDy=0;strokeColor=#000000;" parent="1" source="HVskGO4853j7q7rBNwDe-38" target="sfrr9DZfyL2tGj60liWU-2" edge="1">
          <mxGeometry relative="1" as="geometry">
            <Array as="points">
              <mxPoint x="1055" y="590" />
            </Array>
          </mxGeometry>
        </mxCell>
        <mxCell id="VbgerHLO9BjWHMapBbgY-8" value="ster.UTzas&lt;br style=&quot;font-size: 10px;&quot;&gt;= zasob.y" style="text;html=1;align=center;verticalAlign=middle;resizable=0;points=[];labelBackgroundColor=#ffffff;fontSize=10;" parent="sfrr9DZfyL2tGj60liWU-5" vertex="1" connectable="0">
          <mxGeometry x="0.3204" relative="1" as="geometry">
            <mxPoint as="offset" />
          </mxGeometry>
        </mxCell>
        <mxCell id="HVskGO4853j7q7rBNwDe-38" value="&lt;font&gt;&lt;span style=&quot;font-size: 10px&quot;&gt;Zasob:&lt;/span&gt;&lt;br&gt;&lt;div&gt;&lt;span style=&quot;font-size: 10px&quot;&gt;$x&#39; = $Kgrz * ($UTsprz - $x)&lt;/span&gt;&lt;/div&gt;&lt;div&gt;&lt;span style=&quot;font-size: 10px&quot;&gt;&amp;nbsp; &amp;nbsp;+ $Kodplyw * $Uodp * ($Twod - $x);&lt;/span&gt;&lt;/div&gt;&lt;div&gt;&lt;span style=&quot;font-size: 10px&quot;&gt;&lt;br&gt;&lt;/span&gt;&lt;/div&gt;&lt;div&gt;&lt;span style=&quot;font-size: 10px&quot;&gt;&lt;br&gt;&lt;/span&gt;&lt;/div&gt;&lt;div&gt;&lt;span style=&quot;font-size: 10px&quot;&gt;$y = $Kwymm * $x&lt;/span&gt;&lt;br&gt;&lt;/div&gt;&lt;div&gt;&lt;span style=&quot;font-size: 10px&quot;&gt;&amp;nbsp; &amp;nbsp;+ (1-$Kwymm) * $UTsprz;&lt;/span&gt;&lt;/div&gt;&lt;/font&gt;" style="rounded=0;whiteSpace=wrap;html=1;gradientColor=none;fillColor=#FF99FF;align=left;" parent="1" vertex="1">
          <mxGeometry x="980" y="100" width="180" height="280" as="geometry" />
        </mxCell>
        <mxCell id="HVskGO4853j7q7rBNwDe-42" style="edgeStyle=orthogonalEdgeStyle;rounded=0;orthogonalLoop=1;jettySize=auto;html=1;exitX=0.5;exitY=1;exitDx=0;exitDy=0;entryX=1;entryY=0;entryDx=0;entryDy=0;" parent="1" source="HVskGO4853j7q7rBNwDe-41" target="HVskGO4853j7q7rBNwDe-27" edge="1">
          <mxGeometry relative="1" as="geometry">
            <Array as="points">
              <mxPoint x="887" y="100" />
            </Array>
          </mxGeometry>
        </mxCell>
        <mxCell id="HVskGO4853j7q7rBNwDe-43" style="edgeStyle=orthogonalEdgeStyle;rounded=0;orthogonalLoop=1;jettySize=auto;html=1;exitX=0.5;exitY=1;exitDx=0;exitDy=0;entryX=0;entryY=0;entryDx=0;entryDy=0;" parent="1" source="HVskGO4853j7q7rBNwDe-41" target="HVskGO4853j7q7rBNwDe-38" edge="1">
          <mxGeometry relative="1" as="geometry">
            <Array as="points">
              <mxPoint x="887" y="100" />
            </Array>
          </mxGeometry>
        </mxCell>
        <mxCell id="HVskGO4853j7q7rBNwDe-41" value="# pomp&lt;br&gt;[0, 1]" style="shape=parallelogram;html=1;strokeWidth=1;perimeter=parallelogramPerimeter;whiteSpace=wrap;rounded=1;arcSize=12;size=0.17333333333333334;fillColor=#FFFFFF;gradientColor=none;" parent="1" vertex="1">
          <mxGeometry x="847" y="20" width="80" height="40" as="geometry" />
        </mxCell>
        <mxCell id="HVskGO4853j7q7rBNwDe-45" style="edgeStyle=orthogonalEdgeStyle;rounded=0;orthogonalLoop=1;jettySize=auto;html=1;exitX=1;exitY=0.5;exitDx=0;exitDy=0;entryX=0;entryY=1;entryDx=0;entryDy=0;" parent="1" source="HVskGO4853j7q7rBNwDe-44" target="HVskGO4853j7q7rBNwDe-38" edge="1">
          <mxGeometry relative="1" as="geometry" />
        </mxCell>
        <mxCell id="wGul4LeLy1x4SbsIRmBC-3" value="zasob.Uodp&lt;br style=&quot;font-size: 10px&quot;&gt;= in.odplyw" style="text;html=1;align=center;verticalAlign=middle;resizable=0;points=[];labelBackgroundColor=none;fontSize=10;" parent="HVskGO4853j7q7rBNwDe-45" vertex="1" connectable="0">
          <mxGeometry x="-0.1879" y="-5" relative="1" as="geometry">
            <mxPoint x="-18.2" y="10" as="offset" />
          </mxGeometry>
        </mxCell>
        <mxCell id="HVskGO4853j7q7rBNwDe-44" value="# odplyw&lt;br&gt;[0 .. 1]" style="shape=parallelogram;html=1;strokeWidth=1;perimeter=parallelogramPerimeter;whiteSpace=wrap;rounded=1;arcSize=12;size=0.17333333333333334;fillColor=#FFFFFF;gradientColor=none;" parent="1" vertex="1">
          <mxGeometry x="850" y="425" width="90" height="40" as="geometry" />
        </mxCell>
        <mxCell id="sfrr9DZfyL2tGj60liWU-3" style="edgeStyle=orthogonalEdgeStyle;rounded=0;orthogonalLoop=1;jettySize=auto;html=1;exitX=0.5;exitY=0;exitDx=0;exitDy=0;entryX=0.5;entryY=1;entryDx=0;entryDy=0;strokeColor=#000000;" parent="1" source="sfrr9DZfyL2tGj60liWU-2" edge="1">
          <mxGeometry relative="1" as="geometry">
            <mxPoint x="165" y="430" as="targetPoint" />
            <Array as="points">
              <mxPoint x="220" y="490" />
              <mxPoint x="165" y="490" />
            </Array>
          </mxGeometry>
        </mxCell>
        <mxCell id="VbgerHLO9BjWHMapBbgY-7" value="piec.UTmoc =&lt;br style=&quot;font-size: 10px;&quot;&gt;ster.YTdodana" style="text;html=1;align=center;verticalAlign=middle;resizable=0;points=[];labelBackgroundColor=#ffffff;fontSize=10;" parent="sfrr9DZfyL2tGj60liWU-3" vertex="1" connectable="0">
          <mxGeometry x="-0.4954" y="15" relative="1" as="geometry">
            <mxPoint x="-3.589999999999999" y="-35" as="offset" />
          </mxGeometry>
        </mxCell>
        <mxCell id="sfrr9DZfyL2tGj60liWU-7" value="out.cwu&lt;br style=&quot;font-size: 10px;&quot;&gt;= ster.Ycwu" style="edgeStyle=orthogonalEdgeStyle;rounded=0;orthogonalLoop=1;jettySize=auto;html=1;exitX=1;exitY=0.75;exitDx=0;exitDy=0;entryX=0;entryY=0.5;entryDx=0;entryDy=0;strokeColor=#000000;fontSize=10;" parent="1" source="sfrr9DZfyL2tGj60liWU-2" target="sfrr9DZfyL2tGj60liWU-6" edge="1">
          <mxGeometry x="0.3822" y="-40" relative="1" as="geometry">
            <mxPoint as="offset" />
            <Array as="points">
              <mxPoint x="490" y="625" />
              <mxPoint x="490" y="670" />
            </Array>
          </mxGeometry>
        </mxCell>
        <mxCell id="sfrr9DZfyL2tGj60liWU-2" value="&lt;font style=&quot;font-size: 10px&quot;&gt;&lt;font style=&quot;font-size: 10px&quot;&gt;Ster:&lt;br style=&quot;font-size: 10px&quot;&gt;if (hister(UTzas, Tzasmin, Tzasmax)) {&lt;br style=&quot;font-size: 10px&quot;&gt;&amp;nbsp; &amp;nbsp; YTdodana = KPster * (Tpieczadana - UTpiec);&lt;br style=&quot;font-size: 10px&quot;&gt;&amp;nbsp; &amp;nbsp; YTdodana in [3..10];&lt;br style=&quot;font-size: 10px&quot;&gt;&amp;nbsp; &amp;nbsp; Ycwu = 1;&lt;br style=&quot;font-size: 10px&quot;&gt;} else {&lt;br style=&quot;font-size: 10px&quot;&gt;&amp;nbsp; &amp;nbsp; YTdodana = 0;&lt;br style=&quot;font-size: 10px&quot;&gt;&amp;nbsp; &amp;nbsp; Ycwu = 0;&lt;br style=&quot;font-size: 10px&quot;&gt;}&lt;br&gt;&lt;/font&gt;&lt;br&gt;// $hister:Histereza&lt;br style=&quot;font-size: 10px&quot;&gt;&lt;/font&gt;" style="rounded=0;whiteSpace=wrap;html=1;fillColor=#E6E6E6;gradientColor=none;align=left;fontSize=10;fontFamily=Helvetica;" parent="1" vertex="1">
          <mxGeometry x="100" y="520" width="310" height="140" as="geometry" />
        </mxCell>
        <mxCell id="sfrr9DZfyL2tGj60liWU-6" value="# cwu&lt;br&gt;[0, 1]" style="shape=parallelogram;html=1;strokeWidth=1;perimeter=parallelogramPerimeter;whiteSpace=wrap;rounded=1;arcSize=12;size=0.17333333333333334;fillColor=#FFFFFF;gradientColor=none;" parent="1" vertex="1">
          <mxGeometry x="510" y="650" width="80" height="40" as="geometry" />
        </mxCell>
      </root>
    </mxGraphModel>
  </diagram>
</mxfile>
